solid ref_0
facet normal -0.864678 0.502323 0.00188401
	outer loop
		vertex 0.475282 0.788299 -0.0964952
		vertex 0.149011 0.227862 -0.414723
		vertex 0.149563 0.227874 -0.164348
	endloop
endfacet
facet normal -0.933252 0.359216 0.00204203
	outer loop
		vertex 0.149563 0.227874 -0.164348
		vertex 0.149011 0.227862 -0.414723
		vertex 0.0769507 0.0398407 -0.272527
	endloop
endfacet
facet normal -0.903726 0.0230552 -0.42749
	outer loop
		vertex 0.149011 0.227862 -0.414723
		vertex 0.151098 0.0741587 -0.427426
		vertex 0.0769507 0.0398407 -0.272527
	endloop
endfacet
facet normal -0.903204 0.0154021 -0.428935
	outer loop
		vertex 0.0769507 0.0398407 -0.272527
		vertex 0.151098 0.0741587 -0.427426
		vertex 0.0760274 -0.0384389 -0.273393
	endloop
endfacet
facet normal -0.898026 -0.00309254 -0.439932
	outer loop
		vertex 0.0760274 -0.0384389 -0.273393
		vertex 0.151098 0.0741587 -0.427426
		vertex 0.150792 -0.0739579 -0.42576
	endloop
endfacet
facet normal 0.114278 -0.0114038 -0.993383
	outer loop
		vertex 0.150792 -0.0739579 -0.42576
		vertex 0.151098 0.0741587 -0.427426
		vertex 0.437004 -0.0724731 -0.392852
	endloop
endfacet
facet normal 0.124379 0.00857125 -0.992198
	outer loop
		vertex 0.151098 0.0741587 -0.427426
		vertex 0.366377 0.148253 -0.399799
		vertex 0.437004 -0.0724731 -0.392852
	endloop
endfacet
facet normal 0.151606 0.0174061 -0.988288
	outer loop
		vertex 0.366377 0.148253 -0.399799
		vertex 0.43489 0.0724207 -0.390624
		vertex 0.437004 -0.0724731 -0.392852
	endloop
endfacet
facet normal 0.283261 0.0188743 -0.958857
	outer loop
		vertex 0.437004 -0.0724731 -0.392852
		vertex 0.43489 0.0724207 -0.390624
		vertex 0.499794 0.144521 -0.370031
	endloop
endfacet
facet normal 0.219197 0.0804009 -0.972362
	outer loop
		vertex 0.43489 0.0724207 -0.390624
		vertex 0.43128 0.220354 -0.379206
		vertex 0.499794 0.144521 -0.370031
	endloop
endfacet
facet normal 0.259883 0.118862 -0.958297
	outer loop
		vertex 0.499794 0.144521 -0.370031
		vertex 0.43128 0.220354 -0.379206
		vertex 0.487127 0.417083 -0.33966
	endloop
endfacet
facet normal 0.204059 0.136928 -0.969335
	outer loop
		vertex 0.487127 0.417083 -0.33966
		vertex 0.43128 0.220354 -0.379206
		vertex 0.425528 0.355893 -0.361271
	endloop
endfacet
facet normal 0.159014 0.136142 -0.977844
	outer loop
		vertex 0.425528 0.355893 -0.361271
		vertex 0.43128 0.220354 -0.379206
		vertex 0.366377 0.148253 -0.399799
	endloop
endfacet
facet normal 0.219197 0.0804009 -0.972362
	outer loop
		vertex 0.366377 0.148253 -0.399799
		vertex 0.43128 0.220354 -0.379206
		vertex 0.43489 0.0724207 -0.390624
	endloop
endfacet
facet normal 0.140088 0.141918 -0.979916
	outer loop
		vertex 0.355022 0.425988 -0.361198
		vertex 0.425528 0.355893 -0.361271
		vertex 0.366377 0.148253 -0.399799
	endloop
endfacet
facet normal 0.169796 0.171792 -0.97039
	outer loop
		vertex 0.41662 0.487178 -0.339587
		vertex 0.425528 0.355893 -0.361271
		vertex 0.355022 0.425988 -0.361198
	endloop
endfacet
facet normal 0.169796 0.171792 -0.97039
	outer loop
		vertex 0.41662 0.487178 -0.339587
		vertex 0.487127 0.417083 -0.33966
		vertex 0.425528 0.355893 -0.361271
	endloop
endfacet
facet normal 0.284947 0.28756 -0.914393
	outer loop
		vertex 0.657167 0.763258 -0.177806
		vertex 0.487127 0.417083 -0.33966
		vertex 0.41662 0.487178 -0.339587
	endloop
endfacet
facet normal 0.285727 0.287126 -0.914286
	outer loop
		vertex 0.763666 0.657099 -0.177862
		vertex 0.487127 0.417083 -0.33966
		vertex 0.657167 0.763258 -0.177806
	endloop
endfacet
facet normal 0.41063 0.134789 -0.901784
	outer loop
		vertex 0.770933 0.138461 -0.252073
		vertex 0.487127 0.417083 -0.33966
		vertex 0.763666 0.657099 -0.177862
	endloop
endfacet
facet normal 0.398306 0.119845 -0.90939
	outer loop
		vertex 0.770933 0.138461 -0.252073
		vertex 0.499794 0.144521 -0.370031
		vertex 0.487127 0.417083 -0.33966
	endloop
endfacet
facet normal 0.399246 0.0720973 -0.914005
	outer loop
		vertex 0.935749 0.0328515 -0.18841
		vertex 0.499794 0.144521 -0.370031
		vertex 0.770933 0.138461 -0.252073
	endloop
endfacet
facet normal 0.386854 0.0105859 -0.92208
	outer loop
		vertex 0.502321 -0.143863 -0.372282
		vertex 0.499794 0.144521 -0.370031
		vertex 0.935749 0.0328515 -0.18841
	endloop
endfacet
facet normal 0.31043 0.0101383 -0.950542
	outer loop
		vertex 0.437004 -0.0724731 -0.392852
		vertex 0.499794 0.144521 -0.370031
		vertex 0.502321 -0.143863 -0.372282
	endloop
endfacet
facet normal 0.224452 -0.0746002 -0.971625
	outer loop
		vertex 0.433482 -0.21962 -0.382368
		vertex 0.437004 -0.0724731 -0.392852
		vertex 0.502321 -0.143863 -0.372282
	endloop
endfacet
facet normal 0.114295 -0.0733248 -0.990737
	outer loop
		vertex 0.150792 -0.0739579 -0.42576
		vertex 0.437004 -0.0724731 -0.392852
		vertex 0.433482 -0.21962 -0.382368
	endloop
endfacet
facet normal -0.413818 -0.876441 -0.246181
	outer loop
		vertex 0.433482 -0.21962 -0.382368
		vertex 0.443893 -0.255292 -0.27287
		vertex 0.150792 -0.0739579 -0.42576
	endloop
endfacet
facet normal -0.481816 -0.869624 -0.107738
	outer loop
		vertex 0.443893 -0.255292 -0.27287
		vertex 0.266439 -0.150532 -0.324868
		vertex 0.150792 -0.0739579 -0.42576
	endloop
endfacet
facet normal -0.517522 -0.853908 -0.0548841
	outer loop
		vertex 0.150792 -0.0739579 -0.42576
		vertex 0.266439 -0.150532 -0.324868
		vertex 0.0760274 -0.0384389 -0.273393
	endloop
endfacet
facet normal -0.510264 -0.859887 -0.0150165
	outer loop
		vertex 0.0760274 -0.0384389 -0.273393
		vertex 0.266439 -0.150532 -0.324868
		vertex 0.267818 -0.153548 -0.198995
	endloop
endfacet
facet normal -0.505022 -0.862974 -0.0151479
	outer loop
		vertex 0.267818 -0.153548 -0.198995
		vertex 0.266439 -0.150532 -0.324868
		vertex 0.443893 -0.255292 -0.27287
	endloop
endfacet
facet normal -0.499926 -0.866067 0.00125769
	outer loop
		vertex 0.267818 -0.153548 -0.198995
		vertex 0.443893 -0.255292 -0.27287
		vertex 0.857965 -0.494046 -0.0912583
	endloop
endfacet
facet normal -0.399289 -0.882237 -0.249451
	outer loop
		vertex 0.857965 -0.494046 -0.0912583
		vertex 0.443893 -0.255292 -0.27287
		vertex 0.433482 -0.21962 -0.382368
	endloop
endfacet
facet normal -0.102143 -0.793876 -0.59944
	outer loop
		vertex 0.433482 -0.21962 -0.382368
		vertex 0.696048 -0.353575 -0.249703
		vertex 0.857965 -0.494046 -0.0912583
	endloop
endfacet
facet normal -0.0703693 -0.781028 -0.620519
	outer loop
		vertex 0.857965 -0.494046 -0.0912583
		vertex 0.696048 -0.353575 -0.249703
		vertex 0.78556 -0.409463 -0.189509
	endloop
endfacet
facet normal 0.26067 -0.482891 -0.835983
	outer loop
		vertex 0.78556 -0.409463 -0.189509
		vertex 0.696048 -0.353575 -0.249703
		vertex 0.836041 -0.396723 -0.181128
	endloop
endfacet
facet normal 0.391746 -0.166976 -0.904795
	outer loop
		vertex 0.836041 -0.396723 -0.181128
		vertex 0.696048 -0.353575 -0.249703
		vertex 0.502321 -0.143863 -0.372282
	endloop
endfacet
facet normal 0.357063 -0.203075 -0.911738
	outer loop
		vertex 0.502321 -0.143863 -0.372282
		vertex 0.696048 -0.353575 -0.249703
		vertex 0.433482 -0.21962 -0.382368
	endloop
endfacet
facet normal 0.408806 -0.141978 -0.90151
	outer loop
		vertex 0.502321 -0.143863 -0.372282
		vertex 0.770774 -0.139604 -0.251218
		vertex 0.836041 -0.396723 -0.181128
	endloop
endfacet
facet normal 0.430543 -0.134022 -0.892564
	outer loop
		vertex 0.836041 -0.396723 -0.181128
		vertex 0.770774 -0.139604 -0.251218
		vertex 0.935074 -0.0336343 -0.187877
	endloop
endfacet
facet normal 0.410509 -0.0943534 -0.906962
	outer loop
		vertex 0.935074 -0.0336343 -0.187877
		vertex 0.770774 -0.139604 -0.251218
		vertex 0.502321 -0.143863 -0.372282
	endloop
endfacet
facet normal 0.39444 -0.011379 -0.918851
	outer loop
		vertex 0.935749 0.0328515 -0.18841
		vertex 0.935074 -0.0336343 -0.187877
		vertex 0.502321 -0.143863 -0.372282
	endloop
endfacet
facet normal 0.823304 -0.0129197 -0.567454
	outer loop
		vertex 0.935749 0.0328515 -0.18841
		vertex 0.992607 -0.0333191 -0.10441
		vertex 0.935074 -0.0336343 -0.187877
	endloop
endfacet
facet normal 0.805811 -0.207409 -0.554662
	outer loop
		vertex 0.935074 -0.0336343 -0.187877
		vertex 0.992607 -0.0333191 -0.10441
		vertex 0.977158 -0.39391 0.00798374
	endloop
endfacet
facet normal 0.998592 -0.0490675 -0.0201594
	outer loop
		vertex 0.977158 -0.39391 0.00798374
		vertex 0.992607 -0.0333191 -0.10441
		vertex 0.990077 -0.132648 0.0120402
	endloop
endfacet
facet normal 0.999863 -0.0100575 0.0131427
	outer loop
		vertex 0.992607 -0.0333191 -0.10441
		vertex 0.993283 0.0331668 -0.104943
		vertex 0.990077 -0.132648 0.0120402
	endloop
endfacet
facet normal 0.999803 -0.00595645 0.018954
	outer loop
		vertex 0.990077 -0.132648 0.0120402
		vertex 0.993283 0.0331668 -0.104943
		vertex 0.991664 0.133355 0.0119429
	endloop
endfacet
facet normal 0.998047 0.0535871 -0.0321078
	outer loop
		vertex 0.991664 0.133355 0.0119429
		vertex 0.993283 0.0331668 -0.104943
		vertex 0.977525 0.394582 0.00840788
	endloop
endfacet
facet normal 0.804742 0.209311 -0.555499
	outer loop
		vertex 0.977525 0.394582 0.00840788
		vertex 0.993283 0.0331668 -0.104943
		vertex 0.935749 0.0328515 -0.18841
	endloop
endfacet
facet normal 0.823304 -0.0129197 -0.567454
	outer loop
		vertex 0.935749 0.0328515 -0.18841
		vertex 0.993283 0.0331668 -0.104943
		vertex 0.992607 -0.0333191 -0.10441
	endloop
endfacet
facet normal 0.782413 0.225494 -0.580502
	outer loop
		vertex 0.763666 0.657099 -0.177862
		vertex 0.977525 0.394582 0.00840788
		vertex 0.935749 0.0328515 -0.18841
	endloop
endfacet
facet normal 0.832405 0.430592 -0.348844
	outer loop
		vertex 0.763666 0.657099 -0.177862
		vertex 0.761423 0.721337 -0.103923
		vertex 0.977525 0.394582 0.00840788
	endloop
endfacet
facet normal 0.793493 0.583834 0.171774
	outer loop
		vertex 0.761423 0.721337 -0.103923
		vertex 0.923601 0.464054 0.0213763
		vertex 0.977525 0.394582 0.00840788
	endloop
endfacet
facet normal 0.290595 0.0471581 0.955683
	outer loop
		vertex 0.977525 0.394582 0.00840788
		vertex 0.923601 0.464054 0.0213763
		vertex 0.940278 0.337965 0.0225271
	endloop
endfacet
facet normal 0.290595 0.0471581 0.955683
	outer loop
		vertex 0.940278 0.337965 0.0225271
		vertex 0.923601 0.464054 0.0213763
		vertex 0.886355 0.407437 0.0354955
	endloop
endfacet
facet normal 0.147017 0.147208 0.978119
	outer loop
		vertex 0.923601 0.464054 0.0213763
		vertex 0.741674 0.669493 0.0178021
		vertex 0.886355 0.407437 0.0354955
	endloop
endfacet
facet normal 0.137187 0.14193 0.980324
	outer loop
		vertex 0.886355 0.407437 0.0354955
		vertex 0.741674 0.669493 0.0178021
		vertex 0.669444 0.741445 0.0174929
	endloop
endfacet
facet normal 0.619974 0.624413 0.475121
	outer loop
		vertex 0.669444 0.741445 0.0174929
		vertex 0.741674 0.669493 0.0178021
		vertex 0.662905 0.774733 -0.0177218
	endloop
endfacet
facet normal 0.620561 0.624538 0.47419
	outer loop
		vertex 0.662905 0.774733 -0.0177218
		vertex 0.741674 0.669493 0.0178021
		vertex 0.775153 0.662944 -0.0173855
	endloop
endfacet
facet normal 0.642381 0.577625 0.503684
	outer loop
		vertex 0.775153 0.662944 -0.0173855
		vertex 0.741674 0.669493 0.0178021
		vertex 0.923601 0.464054 0.0213763
	endloop
endfacet
facet normal 0.737929 0.607902 0.293113
	outer loop
		vertex 0.775153 0.662944 -0.0173855
		vertex 0.923601 0.464054 0.0213763
		vertex 0.761423 0.721337 -0.103923
	endloop
endfacet
facet normal 0.66232 0.665568 0.344022
	outer loop
		vertex 0.761423 0.721337 -0.103923
		vertex 0.721404 0.761175 -0.10395
		vertex 0.775153 0.662944 -0.0173855
	endloop
endfacet
facet normal 0.661963 0.66572 0.344416
	outer loop
		vertex 0.775153 0.662944 -0.0173855
		vertex 0.721404 0.761175 -0.10395
		vertex 0.662905 0.774733 -0.0177218
	endloop
endfacet
facet normal 0.118589 0.99009 -0.0752226
	outer loop
		vertex 0.662905 0.774733 -0.0177218
		vertex 0.721404 0.761175 -0.10395
		vertex 0.657167 0.763258 -0.177806
	endloop
endfacet
facet normal 0.606786 0.609201 -0.510574
	outer loop
		vertex 0.657167 0.763258 -0.177806
		vertex 0.721404 0.761175 -0.10395
		vertex 0.761423 0.721337 -0.103923
	endloop
endfacet
facet normal 0.606825 0.609038 -0.510721
	outer loop
		vertex 0.657167 0.763258 -0.177806
		vertex 0.761423 0.721337 -0.103923
		vertex 0.763666 0.657099 -0.177862
	endloop
endfacet
facet normal 0.118589 0.99009 -0.0752226
	outer loop
		vertex 0.657167 0.763258 -0.177806
		vertex 0.598668 0.776816 -0.0915777
		vertex 0.662905 0.774733 -0.0177218
	endloop
endfacet
facet normal 0.0946766 0.994025 -0.0543134
	outer loop
		vertex 0.662905 0.774733 -0.0177218
		vertex 0.598668 0.776816 -0.0915777
		vertex 0.475282 0.788299 -0.0964952
	endloop
endfacet
facet normal 0.0958723 0.991242 -0.0908156
	outer loop
		vertex 0.475282 0.788299 -0.0964952
		vertex 0.598668 0.776816 -0.0915777
		vertex 0.657167 0.763258 -0.177806
	endloop
endfacet
facet normal -0.200704 0.715388 -0.669282
	outer loop
		vertex 0.657167 0.763258 -0.177806
		vertex 0.422353 0.628642 -0.251279
		vertex 0.475282 0.788299 -0.0964952
	endloop
endfacet
facet normal -0.664227 0.622071 -0.414525
	outer loop
		vertex 0.475282 0.788299 -0.0964952
		vertex 0.422353 0.628642 -0.251279
		vertex 0.149011 0.227862 -0.414723
	endloop
endfacet
facet normal -0.30445 0.530325 -0.791243
	outer loop
		vertex 0.422353 0.628642 -0.251279
		vertex 0.355022 0.425988 -0.361198
		vertex 0.149011 0.227862 -0.414723
	endloop
endfacet
facet normal 0.119284 0.141459 -0.982731
	outer loop
		vertex 0.355022 0.425988 -0.361198
		vertex 0.366377 0.148253 -0.399799
		vertex 0.149011 0.227862 -0.414723
	endloop
endfacet
facet normal 0.109366 0.113487 -0.987502
	outer loop
		vertex 0.366377 0.148253 -0.399799
		vertex 0.226548 0.150184 -0.415063
		vertex 0.149011 0.227862 -0.414723
	endloop
endfacet
facet normal 0.0789676 0.0831689 -0.993402
	outer loop
		vertex 0.149011 0.227862 -0.414723
		vertex 0.226548 0.150184 -0.415063
		vertex 0.151098 0.0741587 -0.427426
	endloop
endfacet
facet normal 0.109091 0.053145 -0.99261
	outer loop
		vertex 0.151098 0.0741587 -0.427426
		vertex 0.226548 0.150184 -0.415063
		vertex 0.366377 0.148253 -0.399799
	endloop
endfacet
facet normal -0.230413 0.521995 -0.821237
	outer loop
		vertex 0.41662 0.487178 -0.339587
		vertex 0.355022 0.425988 -0.361198
		vertex 0.422353 0.628642 -0.251279
	endloop
endfacet
facet normal -0.0389958 0.530275 -0.846928
	outer loop
		vertex 0.41662 0.487178 -0.339587
		vertex 0.422353 0.628642 -0.251279
		vertex 0.657167 0.763258 -0.177806
	endloop
endfacet
facet normal -0.216036 0.73621 0.641344
	outer loop
		vertex 0.498712 0.702747 0.00960333
		vertex 0.662905 0.774733 -0.0177218
		vertex 0.475282 0.788299 -0.0964952
	endloop
endfacet
facet normal -0.189697 0.695684 0.692849
	outer loop
		vertex 0.669444 0.741445 0.0174929
		vertex 0.662905 0.774733 -0.0177218
		vertex 0.498712 0.702747 0.00960333
	endloop
endfacet
facet normal -0.0508532 0.0207922 0.99849
	outer loop
		vertex 0.886355 0.407437 0.0354955
		vertex 0.669444 0.741445 0.0174929
		vertex 0.498712 0.702747 0.00960333
	endloop
endfacet
facet normal -0.0669916 -0.000456598 0.997753
	outer loop
		vertex 0.498712 0.702747 0.00960333
		vertex 0.886556 -0.407649 0.035136
		vertex 0.886355 0.407437 0.0354955
	endloop
endfacet
facet normal 0.217325 -0.000376991 0.976099
	outer loop
		vertex 0.886556 -0.407649 0.035136
		vertex 0.991664 0.133355 0.0119429
		vertex 0.886355 0.407437 0.0354955
	endloop
endfacet
facet normal 0.2489 0.0124123 0.96845
	outer loop
		vertex 0.991664 0.133355 0.0119429
		vertex 0.940278 0.337965 0.0225271
		vertex 0.886355 0.407437 0.0354955
	endloop
endfacet
facet normal 0.314309 0.029853 0.948851
	outer loop
		vertex 0.977525 0.394582 0.00840788
		vertex 0.940278 0.337965 0.0225271
		vertex 0.991664 0.133355 0.0119429
	endloop
endfacet
facet normal 0.220168 -0.000956579 0.975462
	outer loop
		vertex 0.990077 -0.132648 0.0120402
		vertex 0.991664 0.133355 0.0119429
		vertex 0.886556 -0.407649 0.035136
	endloop
endfacet
facet normal 0.25905 -0.0164113 0.965724
	outer loop
		vertex 0.886556 -0.407649 0.035136
		vertex 0.939991 -0.337386 0.0219963
		vertex 0.990077 -0.132648 0.0120402
	endloop
endfacet
facet normal 0.312108 -0.030177 0.949567
	outer loop
		vertex 0.990077 -0.132648 0.0120402
		vertex 0.939991 -0.337386 0.0219963
		vertex 0.977158 -0.39391 0.00798374
	endloop
endfacet
facet normal 0.292931 -0.044162 0.955113
	outer loop
		vertex 0.977158 -0.39391 0.00798374
		vertex 0.939991 -0.337386 0.0219963
		vertex 0.886556 -0.407649 0.035136
	endloop
endfacet
facet normal 0.292931 -0.044162 0.955113
	outer loop
		vertex 0.977158 -0.39391 0.00798374
		vertex 0.886556 -0.407649 0.035136
		vertex 0.923723 -0.464174 0.0211234
	endloop
endfacet
facet normal -0.0766567 -0.287109 0.954826
	outer loop
		vertex 0.923723 -0.464174 0.0211234
		vertex 0.886556 -0.407649 0.035136
		vertex 0.771383 -0.421349 0.0217702
	endloop
endfacet
facet normal -0.113296 -0.0167297 0.99342
	outer loop
		vertex 0.771383 -0.421349 0.0217702
		vertex 0.886556 -0.407649 0.035136
		vertex 0.498712 0.702747 0.00960333
	endloop
endfacet
facet normal -0.327175 -0.0691619 0.942429
	outer loop
		vertex 0.771383 -0.421349 0.0217702
		vertex 0.498712 0.702747 0.00960333
		vertex 0.149811 -0.075708 -0.16865
	endloop
endfacet
facet normal -0.43153 -0.0131334 0.902003
	outer loop
		vertex 0.149811 -0.075708 -0.16865
		vertex 0.498712 0.702747 0.00960333
		vertex 0.149563 0.227874 -0.164348
	endloop
endfacet
facet normal -0.607088 0.161338 0.778084
	outer loop
		vertex 0.498712 0.702747 0.00960333
		vertex 0.438249 0.649996 -0.0266341
		vertex 0.149563 0.227874 -0.164348
	endloop
endfacet
facet normal -0.810693 0.422045 0.405776
	outer loop
		vertex 0.149563 0.227874 -0.164348
		vertex 0.438249 0.649996 -0.0266341
		vertex 0.475282 0.788299 -0.0964952
	endloop
endfacet
facet normal -0.71564 0.458002 0.527346
	outer loop
		vertex 0.475282 0.788299 -0.0964952
		vertex 0.438249 0.649996 -0.0266341
		vertex 0.498712 0.702747 0.00960333
	endloop
endfacet
facet normal -0.818968 -0.00879999 0.573772
	outer loop
		vertex 0.149563 0.227874 -0.164348
		vertex 0.0760274 -0.0384389 -0.273393
		vertex 0.149811 -0.075708 -0.16865
	endloop
endfacet
facet normal -0.535 -0.841288 0.0775273
	outer loop
		vertex 0.149811 -0.075708 -0.16865
		vertex 0.0760274 -0.0384389 -0.273393
		vertex 0.267818 -0.153548 -0.198995
	endloop
endfacet
facet normal -0.516587 -0.842562 0.152403
	outer loop
		vertex 0.267818 -0.153548 -0.198995
		vertex 0.457657 -0.260123 -0.144714
		vertex 0.149811 -0.075708 -0.16865
	endloop
endfacet
facet normal -0.516448 -0.841577 0.158207
	outer loop
		vertex 0.149811 -0.075708 -0.16865
		vertex 0.457657 -0.260123 -0.144714
		vertex 0.771383 -0.421349 0.0217702
	endloop
endfacet
facet normal -0.513676 -0.844793 0.14987
	outer loop
		vertex 0.771383 -0.421349 0.0217702
		vertex 0.457657 -0.260123 -0.144714
		vertex 0.857965 -0.494046 -0.0912583
	endloop
endfacet
facet normal -0.513065 -0.848766 0.127909
	outer loop
		vertex 0.857965 -0.494046 -0.0912583
		vertex 0.457657 -0.260123 -0.144714
		vertex 0.267818 -0.153548 -0.198995
	endloop
endfacet
facet normal -0.248591 -0.890077 0.382054
	outer loop
		vertex 0.857965 -0.494046 -0.0912583
		vertex 0.923723 -0.464174 0.0211234
		vertex 0.771383 -0.421349 0.0217702
	endloop
endfacet
facet normal 0.741269 -0.614312 -0.270446
	outer loop
		vertex 0.857965 -0.494046 -0.0912583
		vertex 0.977158 -0.39391 0.00798374
		vertex 0.923723 -0.464174 0.0211234
	endloop
endfacet
facet normal 0.754629 -0.345252 -0.557975
	outer loop
		vertex 0.836041 -0.396723 -0.181128
		vertex 0.977158 -0.39391 0.00798374
		vertex 0.857965 -0.494046 -0.0912583
	endloop
endfacet
facet normal 0.782639 -0.224258 -0.580676
	outer loop
		vertex 0.836041 -0.396723 -0.181128
		vertex 0.935074 -0.0336343 -0.187877
		vertex 0.977158 -0.39391 0.00798374
	endloop
endfacet
facet normal 0.277969 -0.617132 -0.736126
	outer loop
		vertex 0.857965 -0.494046 -0.0912583
		vertex 0.78556 -0.409463 -0.189509
		vertex 0.836041 -0.396723 -0.181128
	endloop
endfacet
facet normal -0.833265 0.0037094 0.552862
	outer loop
		vertex 0.0769507 0.0398407 -0.272527
		vertex 0.0760274 -0.0384389 -0.273393
		vertex 0.149563 0.227874 -0.164348
	endloop
endfacet
facet normal 0.430498 0.133757 -0.892625
	outer loop
		vertex 0.935749 0.0328515 -0.18841
		vertex 0.770933 0.138461 -0.252073
		vertex 0.763666 0.657099 -0.177862
	endloop
endfacet
endsolid ref_0
