solid ref_1
facet normal -0.0372758 0.480693 -0.876096
	outer loop
		vertex -0.502005 0.143405 -0.37164
		vertex -0.695605 0.352288 -0.248794
		vertex -0.150696 0.0726746 -0.425395
	endloop
endfacet
facet normal 0.278054 0.838193 -0.469168
	outer loop
		vertex -0.150696 0.0726746 -0.425395
		vertex -0.695605 0.352288 -0.248794
		vertex -0.85855 0.494625 -0.0910713
	endloop
endfacet
facet normal 0.07087 0.775838 -0.62694
	outer loop
		vertex -0.85855 0.494625 -0.0910713
		vertex -0.695605 0.352288 -0.248794
		vertex -0.78621 0.408726 -0.189193
	endloop
endfacet
facet normal -0.244124 0.491122 -0.836183
	outer loop
		vertex -0.695605 0.352288 -0.248794
		vertex -0.836946 0.397186 -0.181159
		vertex -0.78621 0.408726 -0.189193
	endloop
endfacet
facet normal -0.258715 0.624203 -0.737181
	outer loop
		vertex -0.78621 0.408726 -0.189193
		vertex -0.836946 0.397186 -0.181159
		vertex -0.85855 0.494625 -0.0910713
	endloop
endfacet
facet normal -0.75452 0.347456 -0.556753
	outer loop
		vertex -0.85855 0.494625 -0.0910713
		vertex -0.836946 0.397186 -0.181159
		vertex -0.978007 0.394369 0.0082518
	endloop
endfacet
facet normal -0.801073 0.0582677 -0.595724
	outer loop
		vertex -0.978007 0.394369 0.0082518
		vertex -0.836946 0.397186 -0.181159
		vertex -0.849142 0.134073 -0.190494
	endloop
endfacet
facet normal -0.610251 0.0563224 -0.790203
	outer loop
		vertex -0.849142 0.134073 -0.190494
		vertex -0.836946 0.397186 -0.181159
		vertex -0.770647 0.139116 -0.250753
	endloop
endfacet
facet normal -0.408243 0.138451 -0.902313
	outer loop
		vertex -0.770647 0.139116 -0.250753
		vertex -0.836946 0.397186 -0.181159
		vertex -0.502005 0.143405 -0.37164
	endloop
endfacet
facet normal -0.375391 0.186075 -0.907996
	outer loop
		vertex -0.502005 0.143405 -0.37164
		vertex -0.836946 0.397186 -0.181159
		vertex -0.695605 0.352288 -0.248794
	endloop
endfacet
facet normal -0.410388 0.00234144 -0.911908
	outer loop
		vertex -0.502005 0.143405 -0.37164
		vertex -0.771069 -0.137582 -0.251274
		vertex -0.770647 0.139116 -0.250753
	endloop
endfacet
facet normal -0.608668 0.00242086 -0.793422
	outer loop
		vertex -0.771069 -0.137582 -0.251274
		vertex -0.850239 -0.133421 -0.190526
		vertex -0.770647 0.139116 -0.250753
	endloop
endfacet
facet normal -0.609046 0.00259581 -0.79313
	outer loop
		vertex -0.770647 0.139116 -0.250753
		vertex -0.850239 -0.133421 -0.190526
		vertex -0.849142 0.134073 -0.190494
	endloop
endfacet
facet normal -0.819697 0.00343339 -0.572787
	outer loop
		vertex -0.849142 0.134073 -0.190494
		vertex -0.850239 -0.133421 -0.190526
		vertex -0.991306 0.133098 0.0129469
	endloop
endfacet
facet normal -0.820435 0.00223996 -0.571736
	outer loop
		vertex -0.991306 0.133098 0.0129469
		vertex -0.850239 -0.133421 -0.190526
		vertex -0.991937 -0.131722 0.0128149
	endloop
endfacet
facet normal -0.820095 -0.034368 -0.571194
	outer loop
		vertex -0.991937 -0.131722 0.0128149
		vertex -0.850239 -0.133421 -0.190526
		vertex -0.977714 -0.394621 0.00821302
	endloop
endfacet
facet normal -0.800517 -0.0628053 -0.59601
	outer loop
		vertex -0.977714 -0.394621 0.00821302
		vertex -0.850239 -0.133421 -0.190526
		vertex -0.836595 -0.397646 -0.181009
	endloop
endfacet
facet normal -0.609636 -0.0599509 -0.790411
	outer loop
		vertex -0.836595 -0.397646 -0.181009
		vertex -0.850239 -0.133421 -0.190526
		vertex -0.771069 -0.137582 -0.251274
	endloop
endfacet
facet normal -0.429539 -0.133096 -0.893186
	outer loop
		vertex -0.771069 -0.137582 -0.251274
		vertex -0.763171 -0.657048 -0.177665
		vertex -0.836595 -0.397646 -0.181009
	endloop
endfacet
facet normal -0.782096 -0.228847 -0.579617
	outer loop
		vertex -0.836595 -0.397646 -0.181009
		vertex -0.763171 -0.657048 -0.177665
		vertex -0.977714 -0.394621 0.00821302
	endloop
endfacet
facet normal -0.831273 -0.430673 -0.351434
	outer loop
		vertex -0.763171 -0.657048 -0.177665
		vertex -0.761052 -0.721329 -0.103901
		vertex -0.977714 -0.394621 0.00821302
	endloop
endfacet
facet normal -0.792486 -0.584876 0.172877
	outer loop
		vertex -0.761052 -0.721329 -0.103901
		vertex -0.923333 -0.464652 0.0205735
		vertex -0.977714 -0.394621 0.00821302
	endloop
endfacet
facet normal -0.276391 -0.0451894 0.959982
	outer loop
		vertex -0.977714 -0.394621 0.00821302
		vertex -0.923333 -0.464652 0.0205735
		vertex -0.940551 -0.337602 0.0215968
	endloop
endfacet
facet normal -0.276391 -0.0451894 0.959982
	outer loop
		vertex -0.940551 -0.337602 0.0215968
		vertex -0.923333 -0.464652 0.0205735
		vertex -0.88617 -0.407633 0.0339573
	endloop
endfacet
facet normal -0.140381 -0.138617 0.980346
	outer loop
		vertex -0.88617 -0.407633 0.0339573
		vertex -0.923333 -0.464652 0.0205735
		vertex -0.669071 -0.741248 0.017873
	endloop
endfacet
facet normal -0.14401 -0.141943 0.979343
	outer loop
		vertex -0.923333 -0.464652 0.0205735
		vertex -0.741118 -0.669608 0.0176618
		vertex -0.669071 -0.741248 0.017873
	endloop
endfacet
facet normal -0.621841 -0.62399 0.473234
	outer loop
		vertex -0.669071 -0.741248 0.017873
		vertex -0.741118 -0.669608 0.0176618
		vertex -0.662215 -0.774683 -0.0172048
	endloop
endfacet
facet normal -0.624577 -0.624583 0.468828
	outer loop
		vertex -0.662215 -0.774683 -0.0172048
		vertex -0.741118 -0.669608 0.0176618
		vertex -0.774332 -0.662905 -0.0176546
	endloop
endfacet
facet normal -0.645192 -0.580656 0.496554
	outer loop
		vertex -0.774332 -0.662905 -0.0176546
		vertex -0.741118 -0.669608 0.0176618
		vertex -0.923333 -0.464652 0.0205735
	endloop
endfacet
facet normal -0.733956 -0.609435 0.299828
	outer loop
		vertex -0.761052 -0.721329 -0.103901
		vertex -0.774332 -0.662905 -0.0176546
		vertex -0.923333 -0.464652 0.0205735
	endloop
endfacet
facet normal -0.665052 -0.661841 0.345937
	outer loop
		vertex -0.720983 -0.761467 -0.103662
		vertex -0.774332 -0.662905 -0.0176546
		vertex -0.761052 -0.721329 -0.103901
	endloop
endfacet
facet normal -0.662371 -0.662974 0.348898
	outer loop
		vertex -0.662215 -0.774683 -0.0172048
		vertex -0.774332 -0.662905 -0.0176546
		vertex -0.720983 -0.761467 -0.103662
	endloop
endfacet
facet normal -0.116884 -0.990535 -0.0719595
	outer loop
		vertex -0.662215 -0.774683 -0.0172048
		vertex -0.720983 -0.761467 -0.103662
		vertex -0.597942 -0.776905 -0.0910239
	endloop
endfacet
facet normal -0.116884 -0.990535 -0.0719595
	outer loop
		vertex -0.597942 -0.776905 -0.0910239
		vertex -0.720983 -0.761467 -0.103662
		vertex -0.65671 -0.763689 -0.177481
	endloop
endfacet
facet normal -0.607126 -0.609104 -0.510285
	outer loop
		vertex -0.65671 -0.763689 -0.177481
		vertex -0.720983 -0.761467 -0.103662
		vertex -0.761052 -0.721329 -0.103901
	endloop
endfacet
facet normal -0.607532 -0.607382 -0.511852
	outer loop
		vertex -0.763171 -0.657048 -0.177665
		vertex -0.65671 -0.763689 -0.177481
		vertex -0.761052 -0.721329 -0.103901
	endloop
endfacet
facet normal -0.287849 -0.288932 -0.91305
	outer loop
		vertex -0.487468 -0.416839 -0.340597
		vertex -0.65671 -0.763689 -0.177481
		vertex -0.763171 -0.657048 -0.177665
	endloop
endfacet
facet normal -0.286017 -0.289946 -0.913305
	outer loop
		vertex -0.41687 -0.487577 -0.340249
		vertex -0.65671 -0.763689 -0.177481
		vertex -0.487468 -0.416839 -0.340597
	endloop
endfacet
facet normal 0.0324064 -0.528301 -0.848439
	outer loop
		vertex -0.422708 -0.629221 -0.252273
		vertex -0.65671 -0.763689 -0.177481
		vertex -0.41687 -0.487577 -0.340249
	endloop
endfacet
facet normal 0.199538 -0.718082 -0.66674
	outer loop
		vertex -0.475309 -0.788435 -0.0965417
		vertex -0.65671 -0.763689 -0.177481
		vertex -0.422708 -0.629221 -0.252273
	endloop
endfacet
facet normal -0.0970814 -0.99159 -0.0855811
	outer loop
		vertex -0.475309 -0.788435 -0.0965417
		vertex -0.597942 -0.776905 -0.0910239
		vertex -0.65671 -0.763689 -0.177481
	endloop
endfacet
facet normal -0.0958625 -0.993953 -0.0535539
	outer loop
		vertex -0.662215 -0.774683 -0.0172048
		vertex -0.597942 -0.776905 -0.0910239
		vertex -0.475309 -0.788435 -0.0965417
	endloop
endfacet
facet normal 0.217149 -0.737562 0.639413
	outer loop
		vertex -0.475309 -0.788435 -0.0965417
		vertex -0.497894 -0.703015 0.00965993
		vertex -0.662215 -0.774683 -0.0172048
	endloop
endfacet
facet normal 0.188059 -0.692321 0.696653
	outer loop
		vertex -0.497894 -0.703015 0.00965993
		vertex -0.669071 -0.741248 0.017873
		vertex -0.662215 -0.774683 -0.0172048
	endloop
endfacet
facet normal 0.0512201 -0.014812 0.998578
	outer loop
		vertex -0.88617 -0.407633 0.0339573
		vertex -0.669071 -0.741248 0.017873
		vertex -0.497894 -0.703015 0.00965993
	endloop
endfacet
facet normal 0.0610646 -0.00183493 0.998132
	outer loop
		vertex -0.886686 0.408214 0.0354887
		vertex -0.88617 -0.407633 0.0339573
		vertex -0.497894 -0.703015 0.00965993
	endloop
endfacet
facet normal -0.200946 -0.00196584 0.9796
	outer loop
		vertex -0.991937 -0.131722 0.0128149
		vertex -0.88617 -0.407633 0.0339573
		vertex -0.886686 0.408214 0.0354887
	endloop
endfacet
facet normal -0.246136 -0.0200991 0.969027
	outer loop
		vertex -0.991937 -0.131722 0.0128149
		vertex -0.940551 -0.337602 0.0215968
		vertex -0.88617 -0.407633 0.0339573
	endloop
endfacet
facet normal -0.293968 -0.0326247 0.955258
	outer loop
		vertex -0.977714 -0.394621 0.00821302
		vertex -0.940551 -0.337602 0.0215968
		vertex -0.991937 -0.131722 0.0128149
	endloop
endfacet
facet normal -0.210667 1.47496e-05 0.977558
	outer loop
		vertex -0.886686 0.408214 0.0354887
		vertex -0.991306 0.133098 0.0129469
		vertex -0.991937 -0.131722 0.0128149
	endloop
endfacet
facet normal -0.260639 0.0200281 0.965229
	outer loop
		vertex -0.886686 0.408214 0.0354887
		vertex -0.940699 0.337871 0.0223632
		vertex -0.991306 0.133098 0.0129469
	endloop
endfacet
facet normal -0.309698 0.0328403 0.950268
	outer loop
		vertex -0.991306 0.133098 0.0129469
		vertex -0.940699 0.337871 0.0223632
		vertex -0.978007 0.394369 0.0082518
	endloop
endfacet
facet normal -0.291891 0.0458685 0.955351
	outer loop
		vertex -0.978007 0.394369 0.0082518
		vertex -0.940699 0.337871 0.0223632
		vertex -0.886686 0.408214 0.0354887
	endloop
endfacet
facet normal -0.291891 0.0458685 0.955351
	outer loop
		vertex -0.886686 0.408214 0.0354887
		vertex -0.923994 0.464712 0.0213773
		vertex -0.978007 0.394369 0.0082518
	endloop
endfacet
facet normal -0.73988 0.617804 -0.266261
	outer loop
		vertex -0.978007 0.394369 0.0082518
		vertex -0.923994 0.464712 0.0213773
		vertex -0.85855 0.494625 -0.0910713
	endloop
endfacet
facet normal 0.253556 0.887937 0.383768
	outer loop
		vertex -0.85855 0.494625 -0.0910713
		vertex -0.923994 0.464712 0.0213773
		vertex -0.771733 0.420725 0.022553
	endloop
endfacet
facet normal 0.0759963 0.288571 0.954438
	outer loop
		vertex -0.771733 0.420725 0.022553
		vertex -0.923994 0.464712 0.0213773
		vertex -0.886686 0.408214 0.0354887
	endloop
endfacet
facet normal 0.110151 0.0154399 0.993795
	outer loop
		vertex -0.886686 0.408214 0.0354887
		vertex -0.497894 -0.703015 0.00965993
		vertex -0.771733 0.420725 0.022553
	endloop
endfacet
facet normal 0.308607 0.0643147 0.949013
	outer loop
		vertex -0.771733 0.420725 0.022553
		vertex -0.497894 -0.703015 0.00965993
		vertex -0.0734691 -0.151222 -0.165753
	endloop
endfacet
facet normal 0.671483 -0.301266 0.677015
	outer loop
		vertex -0.497894 -0.703015 0.00965993
		vertex -0.437736 -0.650734 -0.0267414
		vertex -0.0734691 -0.151222 -0.165753
	endloop
endfacet
facet normal 0.766392 -0.424786 0.481872
	outer loop
		vertex -0.0734691 -0.151222 -0.165753
		vertex -0.437736 -0.650734 -0.0267414
		vertex -0.256297 -0.455224 -0.142964
	endloop
endfacet
facet normal 0.770641 -0.442659 0.458439
	outer loop
		vertex -0.256297 -0.455224 -0.142964
		vertex -0.437736 -0.650734 -0.0267414
		vertex -0.475309 -0.788435 -0.0965417
	endloop
endfacet
facet normal 0.716975 -0.460787 0.523089
	outer loop
		vertex -0.475309 -0.788435 -0.0965417
		vertex -0.437736 -0.650734 -0.0267414
		vertex -0.497894 -0.703015 0.00965993
	endloop
endfacet
facet normal 0.833162 -0.552096 -0.0321186
	outer loop
		vertex -0.475309 -0.788435 -0.0965417
		vertex -0.253067 -0.442936 -0.270415
		vertex -0.256297 -0.455224 -0.142964
	endloop
endfacet
facet normal 0.844412 -0.534844 -0.0301702
	outer loop
		vertex -0.256297 -0.455224 -0.142964
		vertex -0.253067 -0.442936 -0.270415
		vertex -0.0736302 -0.150797 -0.427199
	endloop
endfacet
facet normal 0.644335 -0.629109 -0.434803
	outer loop
		vertex -0.253067 -0.442936 -0.270415
		vertex -0.422708 -0.629221 -0.252273
		vertex -0.0736302 -0.150797 -0.427199
	endloop
endfacet
facet normal 0.488611 -0.591143 -0.641723
	outer loop
		vertex -0.422708 -0.629221 -0.252273
		vertex -0.149166 -0.226317 -0.415145
		vertex -0.0736302 -0.150797 -0.427199
	endloop
endfacet
facet normal -0.0784168 -0.0801716 -0.993692
	outer loop
		vertex -0.0736302 -0.150797 -0.427199
		vertex -0.149166 -0.226317 -0.415145
		vertex -0.151085 -0.0734822 -0.427325
	endloop
endfacet
facet normal -0.0784168 -0.0801716 -0.993692
	outer loop
		vertex -0.151085 -0.0734822 -0.427325
		vertex -0.149166 -0.226317 -0.415145
		vertex -0.226621 -0.149002 -0.415271
	endloop
endfacet
facet normal -0.108294 -0.110094 -0.988004
	outer loop
		vertex -0.226621 -0.149002 -0.415271
		vertex -0.149166 -0.226317 -0.415145
		vertex -0.366687 -0.148079 -0.400021
	endloop
endfacet
facet normal -0.118458 -0.139292 -0.983141
	outer loop
		vertex -0.366687 -0.148079 -0.400021
		vertex -0.149166 -0.226317 -0.415145
		vertex -0.355026 -0.425767 -0.362083
	endloop
endfacet
facet normal 0.309151 -0.529289 -0.790113
	outer loop
		vertex -0.355026 -0.425767 -0.362083
		vertex -0.149166 -0.226317 -0.415145
		vertex -0.422708 -0.629221 -0.252273
	endloop
endfacet
facet normal 0.229646 -0.520326 -0.82251
	outer loop
		vertex -0.41687 -0.487577 -0.340249
		vertex -0.355026 -0.425767 -0.362083
		vertex -0.422708 -0.629221 -0.252273
	endloop
endfacet
facet normal -0.169097 -0.173537 -0.970202
	outer loop
		vertex -0.425624 -0.355029 -0.362431
		vertex -0.355026 -0.425767 -0.362083
		vertex -0.41687 -0.487577 -0.340249
	endloop
endfacet
facet normal -0.13513 -0.13969 -0.980931
	outer loop
		vertex -0.366687 -0.148079 -0.400021
		vertex -0.355026 -0.425767 -0.362083
		vertex -0.425624 -0.355029 -0.362431
	endloop
endfacet
facet normal -0.157818 -0.132787 -0.978499
	outer loop
		vertex -0.425624 -0.355029 -0.362431
		vertex -0.431453 -0.219464 -0.379888
		vertex -0.366687 -0.148079 -0.400021
	endloop
endfacet
facet normal -0.220163 -0.0745624 -0.972609
	outer loop
		vertex -0.366687 -0.148079 -0.400021
		vertex -0.431453 -0.219464 -0.379888
		vertex -0.500003 -0.14386 -0.370167
	endloop
endfacet
facet normal -0.263568 -0.11584 -0.95766
	outer loop
		vertex -0.500003 -0.14386 -0.370167
		vertex -0.431453 -0.219464 -0.379888
		vertex -0.487468 -0.416839 -0.340597
	endloop
endfacet
facet normal -0.208417 -0.133721 -0.968856
	outer loop
		vertex -0.487468 -0.416839 -0.340597
		vertex -0.431453 -0.219464 -0.379888
		vertex -0.425624 -0.355029 -0.362431
	endloop
endfacet
facet normal -0.169097 -0.173537 -0.970202
	outer loop
		vertex -0.41687 -0.487577 -0.340249
		vertex -0.487468 -0.416839 -0.340597
		vertex -0.425624 -0.355029 -0.362431
	endloop
endfacet
facet normal -0.401191 -0.116836 -0.908512
	outer loop
		vertex -0.500003 -0.14386 -0.370167
		vertex -0.487468 -0.416839 -0.340597
		vertex -0.771069 -0.137582 -0.251274
	endloop
endfacet
facet normal -0.415185 -0.133821 -0.899841
	outer loop
		vertex -0.771069 -0.137582 -0.251274
		vertex -0.487468 -0.416839 -0.340597
		vertex -0.763171 -0.657048 -0.177665
	endloop
endfacet
facet normal -0.401808 -0.00749496 -0.915693
	outer loop
		vertex -0.500003 -0.14386 -0.370167
		vertex -0.771069 -0.137582 -0.251274
		vertex -0.502005 0.143405 -0.37164
	endloop
endfacet
facet normal -0.309801 -0.00703366 -0.950775
	outer loop
		vertex -0.502005 0.143405 -0.37164
		vertex -0.437063 0.07203 -0.392272
		vertex -0.500003 -0.14386 -0.370167
	endloop
endfacet
facet normal -0.280037 -0.0166398 -0.959845
	outer loop
		vertex -0.437063 0.07203 -0.392272
		vertex -0.435238 -0.0724748 -0.3903
		vertex -0.500003 -0.14386 -0.370167
	endloop
endfacet
facet normal -0.220163 -0.0745624 -0.972609
	outer loop
		vertex -0.500003 -0.14386 -0.370167
		vertex -0.435238 -0.0724748 -0.3903
		vertex -0.366687 -0.148079 -0.400021
	endloop
endfacet
facet normal -0.15709 -0.0154639 -0.987463
	outer loop
		vertex -0.366687 -0.148079 -0.400021
		vertex -0.435238 -0.0724748 -0.3903
		vertex -0.437063 0.07203 -0.392272
	endloop
endfacet
facet normal -0.124025 -0.00472302 -0.992268
	outer loop
		vertex -0.366687 -0.148079 -0.400021
		vertex -0.437063 0.07203 -0.392272
		vertex -0.151085 -0.0734822 -0.427325
	endloop
endfacet
facet normal -0.114919 0.013418 -0.993284
	outer loop
		vertex -0.151085 -0.0734822 -0.427325
		vertex -0.437063 0.07203 -0.392272
		vertex -0.150696 0.0726746 -0.425395
	endloop
endfacet
facet normal -0.113436 0.179282 -0.977236
	outer loop
		vertex -0.150696 0.0726746 -0.425395
		vertex -0.437063 0.07203 -0.392272
		vertex -0.502005 0.143405 -0.37164
	endloop
endfacet
facet normal 0.0147563 0.0131598 -0.999805
	outer loop
		vertex -0.0736302 -0.150797 -0.427199
		vertex -0.151085 -0.0734822 -0.427325
		vertex -0.150696 0.0726746 -0.425395
	endloop
endfacet
facet normal 0.882274 0.30714 -0.356731
	outer loop
		vertex -0.0736302 -0.150797 -0.427199
		vertex -0.150696 0.0726746 -0.425395
		vertex -0.0763037 0.0375673 -0.271633
	endloop
endfacet
facet normal 0.5202 0.852132 -0.0571204
	outer loop
		vertex -0.150696 0.0726746 -0.425395
		vertex -0.267039 0.150447 -0.324708
		vertex -0.0763037 0.0375673 -0.271633
	endloop
endfacet
facet normal 0.514352 0.857205 -0.0253188
	outer loop
		vertex -0.0763037 0.0375673 -0.271633
		vertex -0.267039 0.150447 -0.324708
		vertex -0.267818 0.154651 -0.198211
	endloop
endfacet
facet normal 0.502333 0.864295 -0.0256285
	outer loop
		vertex -0.267818 0.154651 -0.198211
		vertex -0.267039 0.150447 -0.324708
		vertex -0.443623 0.254627 -0.272508
	endloop
endfacet
facet normal 0.477936 0.870174 -0.119891
	outer loop
		vertex -0.443623 0.254627 -0.272508
		vertex -0.267039 0.150447 -0.324708
		vertex -0.150696 0.0726746 -0.425395
	endloop
endfacet
facet normal 0.304128 0.850389 -0.429355
	outer loop
		vertex -0.85855 0.494625 -0.0910713
		vertex -0.443623 0.254627 -0.272508
		vertex -0.150696 0.0726746 -0.425395
	endloop
endfacet
facet normal 0.497442 0.867442 -0.00982217
	outer loop
		vertex -0.267818 0.154651 -0.198211
		vertex -0.443623 0.254627 -0.272508
		vertex -0.85855 0.494625 -0.0910713
	endloop
endfacet
facet normal 0.512446 0.848212 0.133925
	outer loop
		vertex -0.85855 0.494625 -0.0910713
		vertex -0.457082 0.26046 -0.144158
		vertex -0.267818 0.154651 -0.198211
	endloop
endfacet
facet normal 0.517505 0.838486 0.170675
	outer loop
		vertex -0.267818 0.154651 -0.198211
		vertex -0.457082 0.26046 -0.144158
		vertex -0.771733 0.420725 0.022553
	endloop
endfacet
facet normal 0.51299 0.84393 0.15692
	outer loop
		vertex -0.771733 0.420725 0.022553
		vertex -0.457082 0.26046 -0.144158
		vertex -0.85855 0.494625 -0.0910713
	endloop
endfacet
facet normal 0.520708 0.833735 0.183713
	outer loop
		vertex -0.771733 0.420725 0.022553
		vertex -0.150631 0.0748108 -0.168026
		vertex -0.267818 0.154651 -0.198211
	endloop
endfacet
facet normal 0.544599 0.833746 0.090988
	outer loop
		vertex -0.267818 0.154651 -0.198211
		vertex -0.150631 0.0748108 -0.168026
		vertex -0.0763037 0.0375673 -0.271633
	endloop
endfacet
facet normal 0.824296 0.286307 0.48843
	outer loop
		vertex -0.0763037 0.0375673 -0.271633
		vertex -0.150631 0.0748108 -0.168026
		vertex -0.0734691 -0.151222 -0.165753
	endloop
endfacet
facet normal 0.356826 0.131113 0.924924
	outer loop
		vertex -0.0734691 -0.151222 -0.165753
		vertex -0.150631 0.0748108 -0.168026
		vertex -0.771733 0.420725 0.022553
	endloop
endfacet
facet normal 0.838876 0.275788 0.469284
	outer loop
		vertex -0.0734691 -0.151222 -0.165753
		vertex -0.0398875 -0.0771524 -0.269311
		vertex -0.0763037 0.0375673 -0.271633
	endloop
endfacet
facet normal 0.903633 0.280292 -0.323856
	outer loop
		vertex -0.0763037 0.0375673 -0.271633
		vertex -0.0398875 -0.0771524 -0.269311
		vertex -0.0736302 -0.150797 -0.427199
	endloop
endfacet
facet normal 0.910115 -0.414355 -0.00123412
	outer loop
		vertex -0.0736302 -0.150797 -0.427199
		vertex -0.0398875 -0.0771524 -0.269311
		vertex -0.0734691 -0.151222 -0.165753
	endloop
endfacet
facet normal 0.856917 -0.515453 -0.00136557
	outer loop
		vertex -0.0734691 -0.151222 -0.165753
		vertex -0.256297 -0.455224 -0.142964
		vertex -0.0736302 -0.150797 -0.427199
	endloop
endfacet
facet normal -0.108425 -0.0500217 -0.992845
	outer loop
		vertex -0.151085 -0.0734822 -0.427325
		vertex -0.226621 -0.149002 -0.415271
		vertex -0.366687 -0.148079 -0.400021
	endloop
endfacet
facet normal 0.647615 -0.631304 -0.426674
	outer loop
		vertex -0.475309 -0.788435 -0.0965417
		vertex -0.422708 -0.629221 -0.252273
		vertex -0.253067 -0.442936 -0.270415
	endloop
endfacet
facet normal -0.81936 0.031419 -0.572418
	outer loop
		vertex -0.978007 0.394369 0.0082518
		vertex -0.849142 0.134073 -0.190494
		vertex -0.991306 0.133098 0.0129469
	endloop
endfacet
endsolid ref_1
