solid ref_2
facet normal -0.367574 -0.929913 0.012325
	outer loop
		vertex -0.0384603 0.0754253 -0.273756
		vertex -0.228336 0.149293 -0.363219
		vertex -0.226352 0.147835 -0.414072
	endloop
endfacet
facet normal -0.482918 -0.875643 0.0062679
	outer loop
		vertex -0.228336 0.149293 -0.363219
		vertex -0.614954 0.363952 -0.162272
		vertex -0.226352 0.147835 -0.414072
	endloop
endfacet
facet normal -0.587711 -0.770996 -0.245276
	outer loop
		vertex -0.226352 0.147835 -0.414072
		vertex -0.614954 0.363952 -0.162272
		vertex -0.789222 0.475936 -0.096713
	endloop
endfacet
facet normal -0.464951 -0.855959 0.226174
	outer loop
		vertex -0.789222 0.475936 -0.096713
		vertex -0.614954 0.363952 -0.162272
		vertex -0.227878 0.152673 -0.166138
	endloop
endfacet
facet normal -0.47892 -0.877709 0.0161668
	outer loop
		vertex -0.227878 0.152673 -0.166138
		vertex -0.614954 0.363952 -0.162272
		vertex -0.228336 0.149293 -0.363219
	endloop
endfacet
facet normal -0.369375 -0.929129 0.0167939
	outer loop
		vertex -0.227878 0.152673 -0.166138
		vertex -0.228336 0.149293 -0.363219
		vertex -0.0384603 0.0754253 -0.273756
	endloop
endfacet
facet normal -0.00882951 -0.819648 0.572799
	outer loop
		vertex -0.0384603 0.0754253 -0.273756
		vertex -0.0757544 0.149478 -0.168365
		vertex -0.227878 0.152673 -0.166138
	endloop
endfacet
facet normal 0.00199918 -0.506049 0.862503
	outer loop
		vertex -0.227878 0.152673 -0.166138
		vertex -0.0757544 0.149478 -0.168365
		vertex 0.0733033 0.151628 -0.167449
	endloop
endfacet
facet normal 0.00823552 -0.816812 0.576845
	outer loop
		vertex 0.0733033 0.151628 -0.167449
		vertex -0.0757544 0.149478 -0.168365
		vertex -0.0384603 0.0754253 -0.273756
	endloop
endfacet
facet normal 0.0157819 -0.820441 0.571513
	outer loop
		vertex -0.0384603 0.0754253 -0.273756
		vertex 0.0391924 0.0773504 -0.273137
		vertex 0.0733033 0.151628 -0.167449
	endloop
endfacet
facet normal 0.84093 -0.531429 0.102076
	outer loop
		vertex 0.0733033 0.151628 -0.167449
		vertex 0.0391924 0.0773504 -0.273137
		vertex 0.150688 0.268405 -0.196998
	endloop
endfacet
facet normal 0.842926 -0.529637 0.0946592
	outer loop
		vertex 0.150688 0.268405 -0.196998
		vertex 0.0391924 0.0773504 -0.273137
		vertex 0.364138 0.614226 -0.162803
	endloop
endfacet
facet normal 0.85846 -0.511288 -0.0403796
	outer loop
		vertex 0.0391924 0.0773504 -0.273137
		vertex 0.151371 0.269633 -0.322949
		vertex 0.364138 0.614226 -0.162803
	endloop
endfacet
facet normal 0.865453 -0.493029 -0.088957
	outer loop
		vertex 0.364138 0.614226 -0.162803
		vertex 0.151371 0.269633 -0.322949
		vertex 0.0735606 0.151837 -0.427086
	endloop
endfacet
facet normal 0.855728 -0.514193 -0.0577502
	outer loop
		vertex 0.0735606 0.151837 -0.427086
		vertex 0.151371 0.269633 -0.322949
		vertex 0.0391924 0.0773504 -0.273137
	endloop
endfacet
facet normal 0.0257992 -0.902117 -0.43072
	outer loop
		vertex 0.0735606 0.151837 -0.427086
		vertex 0.0391924 0.0773504 -0.273137
		vertex -0.0384603 0.0754253 -0.273756
	endloop
endfacet
facet normal 0.0031468 -0.895929 -0.444186
	outer loop
		vertex -0.0384603 0.0754253 -0.273756
		vertex -0.0735149 0.150293 -0.425014
		vertex 0.0735606 0.151837 -0.427086
	endloop
endfacet
facet normal -0.0151551 0.110418 -0.99377
	outer loop
		vertex 0.0735606 0.151837 -0.427086
		vertex -0.0735149 0.150293 -0.425014
		vertex -0.0724536 0.437451 -0.393124
	endloop
endfacet
facet normal -0.0389278 0.110434 -0.993121
	outer loop
		vertex -0.0735149 0.150293 -0.425014
		vertex -0.149171 0.225454 -0.413691
		vertex -0.0724536 0.437451 -0.393124
	endloop
endfacet
facet normal -0.0698684 0.121342 -0.990149
	outer loop
		vertex -0.0724536 0.437451 -0.393124
		vertex -0.149171 0.225454 -0.413691
		vertex -0.219485 0.433509 -0.383233
	endloop
endfacet
facet normal -0.104973 0.109231 -0.988458
	outer loop
		vertex -0.219485 0.433509 -0.383233
		vertex -0.149171 0.225454 -0.413691
		vertex -0.226352 0.147835 -0.414072
	endloop
endfacet
facet normal -0.0724319 0.0769022 -0.994404
	outer loop
		vertex -0.226352 0.147835 -0.414072
		vertex -0.149171 0.225454 -0.413691
		vertex -0.0735149 0.150293 -0.425014
	endloop
endfacet
facet normal -0.0170896 -0.897662 -0.440354
	outer loop
		vertex -0.226352 0.147835 -0.414072
		vertex -0.0735149 0.150293 -0.425014
		vertex -0.0384603 0.0754253 -0.273756
	endloop
endfacet
facet normal -0.136388 0.109567 -0.984578
	outer loop
		vertex -0.226352 0.147835 -0.414072
		vertex -0.425748 0.354028 -0.363505
		vertex -0.219485 0.433509 -0.383233
	endloop
endfacet
facet normal -0.15144 0.150526 -0.976938
	outer loop
		vertex -0.425748 0.354028 -0.363505
		vertex -0.354937 0.42533 -0.363496
		vertex -0.219485 0.433509 -0.383233
	endloop
endfacet
facet normal -0.152926 0.194506 -0.968907
	outer loop
		vertex -0.219485 0.433509 -0.383233
		vertex -0.354937 0.42533 -0.363496
		vertex -0.416846 0.487684 -0.341207
	endloop
endfacet
facet normal -0.1744 0.173326 -0.9693
	outer loop
		vertex -0.416846 0.487684 -0.341207
		vertex -0.354937 0.42533 -0.363496
		vertex -0.425748 0.354028 -0.363505
	endloop
endfacet
facet normal -0.1744 0.173326 -0.9693
	outer loop
		vertex -0.487657 0.416382 -0.341216
		vertex -0.416846 0.487684 -0.341207
		vertex -0.425748 0.354028 -0.363505
	endloop
endfacet
facet normal -0.289864 0.287987 -0.912712
	outer loop
		vertex -0.763392 0.657462 -0.177579
		vertex -0.416846 0.487684 -0.341207
		vertex -0.487657 0.416382 -0.341216
	endloop
endfacet
facet normal -0.289102 0.289357 -0.91252
	outer loop
		vertex -0.657092 0.763979 -0.177481
		vertex -0.416846 0.487684 -0.341207
		vertex -0.763392 0.657462 -0.177579
	endloop
endfacet
facet normal -0.133494 0.416749 -0.899166
	outer loop
		vertex -0.139592 0.770849 -0.251126
		vertex -0.416846 0.487684 -0.341207
		vertex -0.657092 0.763979 -0.177481
	endloop
endfacet
facet normal -0.126964 0.411434 -0.902553
	outer loop
		vertex -0.139592 0.770849 -0.251126
		vertex -0.143767 0.50251 -0.372863
		vertex -0.416846 0.487684 -0.341207
	endloop
endfacet
facet normal -0.125548 0.280767 -0.951529
	outer loop
		vertex -0.416846 0.487684 -0.341207
		vertex -0.143767 0.50251 -0.372863
		vertex -0.219485 0.433509 -0.383233
	endloop
endfacet
facet normal -0.0714022 0.224408 -0.971876
	outer loop
		vertex -0.219485 0.433509 -0.383233
		vertex -0.143767 0.50251 -0.372863
		vertex -0.0724536 0.437451 -0.393124
	endloop
endfacet
facet normal 0.0158018 0.313058 -0.949603
	outer loop
		vertex -0.0724536 0.437451 -0.393124
		vertex -0.143767 0.50251 -0.372863
		vertex 0.143857 0.499688 -0.369007
	endloop
endfacet
facet normal 0.0161529 0.38615 -0.922295
	outer loop
		vertex 0.143857 0.499688 -0.369007
		vertex -0.143767 0.50251 -0.372863
		vertex 0.0332168 0.935939 -0.188294
	endloop
endfacet
facet normal -0.0103975 0.395361 -0.918467
	outer loop
		vertex 0.0332168 0.935939 -0.188294
		vertex -0.143767 0.50251 -0.372863
		vertex -0.0333454 0.935239 -0.187841
	endloop
endfacet
facet normal -0.098639 0.412397 -0.905648
	outer loop
		vertex -0.0333454 0.935239 -0.187841
		vertex -0.143767 0.50251 -0.372863
		vertex -0.139592 0.770849 -0.251126
	endloop
endfacet
facet normal -0.132811 0.429676 -0.893163
	outer loop
		vertex -0.0333454 0.935239 -0.187841
		vertex -0.139592 0.770849 -0.251126
		vertex -0.657092 0.763979 -0.177481
	endloop
endfacet
facet normal -0.224728 0.783428 -0.579429
	outer loop
		vertex -0.657092 0.763979 -0.177481
		vertex -0.393841 0.976772 0.00812933
		vertex -0.0333454 0.935239 -0.187841
	endloop
endfacet
facet normal -0.20795 0.806501 -0.553455
	outer loop
		vertex -0.393841 0.976772 0.00812933
		vertex -0.0330321 0.992675 -0.104263
		vertex -0.0333454 0.935239 -0.187841
	endloop
endfacet
facet normal -0.0125127 0.824111 -0.56629
	outer loop
		vertex -0.0333454 0.935239 -0.187841
		vertex -0.0330321 0.992675 -0.104263
		vertex 0.0332168 0.935939 -0.188294
	endloop
endfacet
facet normal -0.0125127 0.824111 -0.56629
	outer loop
		vertex 0.0332168 0.935939 -0.188294
		vertex -0.0330321 0.992675 -0.104263
		vertex 0.0335302 0.993375 -0.104715
	endloop
endfacet
facet normal -0.0104217 0.999856 0.0134155
	outer loop
		vertex -0.0330321 0.992675 -0.104263
		vertex -0.13255 0.990075 0.0122519
		vertex 0.0335302 0.993375 -0.104715
	endloop
endfacet
facet normal -0.00536851 0.999774 0.0205882
	outer loop
		vertex 0.0335302 0.993375 -0.104715
		vertex -0.13255 0.990075 0.0122519
		vertex 0.133531 0.991505 0.0121969
	endloop
endfacet
facet normal -0.00100283 0.224119 0.974561
	outer loop
		vertex 0.133531 0.991505 0.0121969
		vertex -0.13255 0.990075 0.0122519
		vertex -0.407691 0.886238 0.0358481
	endloop
endfacet
facet normal -0.0168033 0.263691 0.964461
	outer loop
		vertex -0.13255 0.990075 0.0122519
		vertex -0.337677 0.939369 0.0225415
		vertex -0.407691 0.886238 0.0358481
	endloop
endfacet
facet normal -0.0456 0.298823 0.953219
	outer loop
		vertex -0.407691 0.886238 0.0358481
		vertex -0.337677 0.939369 0.0225415
		vertex -0.463855 0.923641 0.0214359
	endloop
endfacet
facet normal -0.0456 0.298823 0.953219
	outer loop
		vertex -0.463855 0.923641 0.0214359
		vertex -0.337677 0.939369 0.0225415
		vertex -0.393841 0.976772 0.00812933
	endloop
endfacet
facet normal -0.0311545 0.318301 0.947478
	outer loop
		vertex -0.393841 0.976772 0.00812933
		vertex -0.337677 0.939369 0.0225415
		vertex -0.13255 0.990075 0.0122519
	endloop
endfacet
facet normal -0.0505073 0.998506 -0.0208526
	outer loop
		vertex -0.393841 0.976772 0.00812933
		vertex -0.13255 0.990075 0.0122519
		vertex -0.0330321 0.992675 -0.104263
	endloop
endfacet
facet normal -0.578583 0.800976 0.15388
	outer loop
		vertex -0.721381 0.761612 -0.103459
		vertex -0.463855 0.923641 0.0214359
		vertex -0.393841 0.976772 0.00812933
	endloop
endfacet
facet normal -0.606345 0.740703 0.289317
	outer loop
		vertex -0.66305 0.775507 -0.0167834
		vertex -0.463855 0.923641 0.0214359
		vertex -0.721381 0.761612 -0.103459
	endloop
endfacet
facet normal -0.575678 0.644173 0.503623
	outer loop
		vertex -0.669621 0.742084 0.0184561
		vertex -0.463855 0.923641 0.0214359
		vertex -0.66305 0.775507 -0.0167834
	endloop
endfacet
facet normal -0.148954 0.152781 0.97697
	outer loop
		vertex -0.407691 0.886238 0.0358481
		vertex -0.463855 0.923641 0.0214359
		vertex -0.669621 0.742084 0.0184561
	endloop
endfacet
facet normal -0.145615 0.146538 0.978429
	outer loop
		vertex -0.407691 0.886238 0.0358481
		vertex -0.669621 0.742084 0.0184561
		vertex -0.741654 0.67019 0.0185032
	endloop
endfacet
facet normal -0.621482 0.623002 0.475003
	outer loop
		vertex -0.741654 0.67019 0.0185032
		vertex -0.669621 0.742084 0.0184561
		vertex -0.66305 0.775507 -0.0167834
	endloop
endfacet
facet normal -0.623349 0.623398 0.472028
	outer loop
		vertex -0.66305 0.775507 -0.0167834
		vertex -0.774849 0.663718 -0.0167857
		vertex -0.741654 0.67019 0.0185032
	endloop
endfacet
facet normal -0.697302 -0.190804 0.690915
	outer loop
		vertex -0.741654 0.67019 0.0185032
		vertex -0.774849 0.663718 -0.0167857
		vertex -0.703248 0.499281 0.0100661
	endloop
endfacet
facet normal -0.73684 -0.216244 0.640551
	outer loop
		vertex -0.703248 0.499281 0.0100661
		vertex -0.774849 0.663718 -0.0167857
		vertex -0.789222 0.475936 -0.096713
	endloop
endfacet
facet normal -0.993341 0.10022 -0.0568252
	outer loop
		vertex -0.789222 0.475936 -0.096713
		vertex -0.774849 0.663718 -0.0167857
		vertex -0.777095 0.599463 -0.090856
	endloop
endfacet
facet normal -0.989756 0.121328 -0.0752451
	outer loop
		vertex -0.777095 0.599463 -0.090856
		vertex -0.774849 0.663718 -0.0167857
		vertex -0.761146 0.721717 -0.103509
	endloop
endfacet
facet normal -0.666587 0.664008 0.338754
	outer loop
		vertex -0.761146 0.721717 -0.103509
		vertex -0.774849 0.663718 -0.0167857
		vertex -0.721381 0.761612 -0.103459
	endloop
endfacet
facet normal -0.664751 0.664807 0.340789
	outer loop
		vertex -0.721381 0.761612 -0.103459
		vertex -0.774849 0.663718 -0.0167857
		vertex -0.66305 0.775507 -0.0167834
	endloop
endfacet
facet normal -0.609343 0.607998 -0.50896
	outer loop
		vertex -0.761146 0.721717 -0.103509
		vertex -0.721381 0.761612 -0.103459
		vertex -0.763392 0.657462 -0.177579
	endloop
endfacet
facet normal -0.608881 0.60811 -0.509379
	outer loop
		vertex -0.763392 0.657462 -0.177579
		vertex -0.721381 0.761612 -0.103459
		vertex -0.657092 0.763979 -0.177481
	endloop
endfacet
facet normal -0.429688 0.833839 -0.346527
	outer loop
		vertex -0.721381 0.761612 -0.103459
		vertex -0.393841 0.976772 0.00812933
		vertex -0.657092 0.763979 -0.177481
	endloop
endfacet
facet normal -0.989756 0.121328 -0.0752451
	outer loop
		vertex -0.763392 0.657462 -0.177579
		vertex -0.777095 0.599463 -0.090856
		vertex -0.761146 0.721717 -0.103509
	endloop
endfacet
facet normal -0.990875 0.101489 -0.0886903
	outer loop
		vertex -0.789222 0.475936 -0.096713
		vertex -0.777095 0.599463 -0.090856
		vertex -0.763392 0.657462 -0.177579
	endloop
endfacet
facet normal -0.718021 -0.19542 -0.668024
	outer loop
		vertex -0.763392 0.657462 -0.177579
		vertex -0.629645 0.422219 -0.25252
		vertex -0.789222 0.475936 -0.096713
	endloop
endfacet
facet normal -0.619664 -0.67391 -0.40232
	outer loop
		vertex -0.789222 0.475936 -0.096713
		vertex -0.629645 0.422219 -0.25252
		vertex -0.226352 0.147835 -0.414072
	endloop
endfacet
facet normal -0.533633 -0.324514 -0.780978
	outer loop
		vertex -0.629645 0.422219 -0.25252
		vertex -0.425748 0.354028 -0.363505
		vertex -0.226352 0.147835 -0.414072
	endloop
endfacet
facet normal -0.522833 -0.225223 -0.822144
	outer loop
		vertex -0.487657 0.416382 -0.341216
		vertex -0.425748 0.354028 -0.363505
		vertex -0.629645 0.422219 -0.25252
	endloop
endfacet
facet normal -0.530473 -0.0317383 -0.847108
	outer loop
		vertex -0.487657 0.416382 -0.341216
		vertex -0.629645 0.422219 -0.25252
		vertex -0.763392 0.657462 -0.177579
	endloop
endfacet
facet normal -0.460068 -0.714789 0.526702
	outer loop
		vertex -0.789222 0.475936 -0.096713
		vertex -0.650746 0.439104 -0.0257406
		vertex -0.703248 0.499281 0.0100661
	endloop
endfacet
facet normal -0.137822 -0.592507 0.793688
	outer loop
		vertex -0.703248 0.499281 0.0100661
		vertex -0.650746 0.439104 -0.0257406
		vertex -0.227878 0.152673 -0.166138
	endloop
endfacet
facet normal -0.420571 -0.815644 0.397298
	outer loop
		vertex -0.227878 0.152673 -0.166138
		vertex -0.650746 0.439104 -0.0257406
		vertex -0.789222 0.475936 -0.096713
	endloop
endfacet
facet normal 0.00232311 -0.450635 0.892705
	outer loop
		vertex 0.0733033 0.151628 -0.167449
		vertex -0.703248 0.499281 0.0100661
		vertex -0.227878 0.152673 -0.166138
	endloop
endfacet
facet normal 0.0685181 -0.328037 0.942177
	outer loop
		vertex 0.419961 0.771165 0.0230443
		vertex -0.703248 0.499281 0.0100661
		vertex 0.0733033 0.151628 -0.167449
	endloop
endfacet
facet normal 0.0150859 -0.109763 0.993843
	outer loop
		vertex 0.407249 0.8862 0.0359421
		vertex -0.703248 0.499281 0.0100661
		vertex 0.419961 0.771165 0.0230443
	endloop
endfacet
facet normal -0.000118134 -0.0663904 0.997794
	outer loop
		vertex 0.407249 0.8862 0.0359421
		vertex -0.407691 0.886238 0.0358481
		vertex -0.703248 0.499281 0.0100661
	endloop
endfacet
facet normal -0.017435 -0.0532063 0.998431
	outer loop
		vertex -0.407691 0.886238 0.0358481
		vertex -0.741654 0.67019 0.0185032
		vertex -0.703248 0.499281 0.0100661
	endloop
endfacet
facet normal -0.000102345 0.219715 0.975564
	outer loop
		vertex 0.133531 0.991505 0.0121969
		vertex -0.407691 0.886238 0.0358481
		vertex 0.407249 0.8862 0.0359421
	endloop
endfacet
facet normal 0.0069872 0.237211 0.971433
	outer loop
		vertex 0.407249 0.8862 0.0359421
		vertex 0.337878 0.940074 0.0232857
		vertex 0.133531 0.991505 0.0121969
	endloop
endfacet
facet normal 0.031798 0.329774 0.943524
	outer loop
		vertex 0.133531 0.991505 0.0121969
		vertex 0.337878 0.940074 0.0232857
		vertex 0.394405 0.97725 0.00838724
	endloop
endfacet
facet normal 0.0563004 0.296468 0.953382
	outer loop
		vertex 0.394405 0.97725 0.00838724
		vertex 0.337878 0.940074 0.0232857
		vertex 0.463775 0.923376 0.0210436
	endloop
endfacet
facet normal 0.0563004 0.296468 0.953382
	outer loop
		vertex 0.463775 0.923376 0.0210436
		vertex 0.337878 0.940074 0.0232857
		vertex 0.407249 0.8862 0.0359421
	endloop
endfacet
facet normal 0.299156 -0.0736094 0.951361
	outer loop
		vertex 0.463775 0.923376 0.0210436
		vertex 0.407249 0.8862 0.0359421
		vertex 0.419961 0.771165 0.0230443
	endloop
endfacet
facet normal 0.888577 -0.250733 0.384141
	outer loop
		vertex 0.493869 0.857462 -0.0915894
		vertex 0.463775 0.923376 0.0210436
		vertex 0.419961 0.771165 0.0230443
	endloop
endfacet
facet normal 0.621101 0.737366 -0.265567
	outer loop
		vertex 0.493869 0.857462 -0.0915894
		vertex 0.394405 0.97725 0.00838724
		vertex 0.463775 0.923376 0.0210436
	endloop
endfacet
facet normal 0.349994 0.754256 -0.55552
	outer loop
		vertex 0.397315 0.836349 -0.181087
		vertex 0.394405 0.97725 0.00838724
		vertex 0.493869 0.857462 -0.0915894
	endloop
endfacet
facet normal 0.225738 0.783387 -0.579092
	outer loop
		vertex 0.397315 0.836349 -0.181087
		vertex 0.0332168 0.935939 -0.188294
		vertex 0.394405 0.97725 0.00838724
	endloop
endfacet
facet normal 0.209716 0.805459 -0.554305
	outer loop
		vertex 0.394405 0.97725 0.00838724
		vertex 0.0332168 0.935939 -0.188294
		vertex 0.0335302 0.993375 -0.104715
	endloop
endfacet
facet normal 0.054094 0.998076 -0.0303003
	outer loop
		vertex 0.394405 0.97725 0.00838724
		vertex 0.0335302 0.993375 -0.104715
		vertex 0.133531 0.991505 0.0121969
	endloop
endfacet
facet normal 0.135138 0.429447 -0.892924
	outer loop
		vertex 0.139177 0.770851 -0.251656
		vertex 0.0332168 0.935939 -0.188294
		vertex 0.397315 0.836349 -0.181087
	endloop
endfacet
facet normal 0.0717261 0.397192 -0.914928
	outer loop
		vertex 0.143857 0.499688 -0.369007
		vertex 0.0332168 0.935939 -0.188294
		vertex 0.139177 0.770851 -0.251656
	endloop
endfacet
facet normal 0.147667 0.394964 -0.906751
	outer loop
		vertex 0.397315 0.836349 -0.181087
		vertex 0.143857 0.499688 -0.369007
		vertex 0.139177 0.770851 -0.251656
	endloop
endfacet
facet normal 0.171579 0.378524 -0.909549
	outer loop
		vertex 0.397315 0.836349 -0.181087
		vertex 0.352996 0.695258 -0.248165
		vertex 0.143857 0.499688 -0.369007
	endloop
endfacet
facet normal 0.202261 0.349083 -0.915003
	outer loop
		vertex 0.143857 0.499688 -0.369007
		vertex 0.352996 0.695258 -0.248165
		vertex 0.219245 0.431552 -0.378337
	endloop
endfacet
facet normal 0.789733 -0.101947 -0.60492
	outer loop
		vertex 0.219245 0.431552 -0.378337
		vertex 0.352996 0.695258 -0.248165
		vertex 0.493869 0.857462 -0.0915894
	endloop
endfacet
facet normal 0.774251 -0.0647159 -0.629561
	outer loop
		vertex 0.493869 0.857462 -0.0915894
		vertex 0.352996 0.695258 -0.248165
		vertex 0.408923 0.785824 -0.188694
	endloop
endfacet
facet normal 0.497839 0.239856 -0.833442
	outer loop
		vertex 0.408923 0.785824 -0.188694
		vertex 0.352996 0.695258 -0.248165
		vertex 0.397315 0.836349 -0.181087
	endloop
endfacet
facet normal 0.626791 0.254859 -0.736328
	outer loop
		vertex 0.493869 0.857462 -0.0915894
		vertex 0.408923 0.785824 -0.188694
		vertex 0.397315 0.836349 -0.181087
	endloop
endfacet
facet normal 0.881774 -0.394682 -0.258266
	outer loop
		vertex 0.364138 0.614226 -0.162803
		vertex 0.219245 0.431552 -0.378337
		vertex 0.493869 0.857462 -0.0915894
	endloop
endfacet
facet normal 0.877843 -0.415772 -0.23775
	outer loop
		vertex 0.0735606 0.151837 -0.427086
		vertex 0.219245 0.431552 -0.378337
		vertex 0.364138 0.614226 -0.162803
	endloop
endfacet
facet normal 0.230247 0.0494583 -0.971875
	outer loop
		vertex 0.0735606 0.151837 -0.427086
		vertex 0.14731 0.367034 -0.398663
		vertex 0.219245 0.431552 -0.378337
	endloop
endfacet
facet normal 0.0779703 0.219438 -0.972506
	outer loop
		vertex 0.219245 0.431552 -0.378337
		vertex 0.14731 0.367034 -0.398663
		vertex 0.143857 0.499688 -0.369007
	endloop
endfacet
facet normal 0.0779703 0.219438 -0.972506
	outer loop
		vertex 0.14731 0.367034 -0.398663
		vertex 0.0719227 0.43517 -0.389332
		vertex 0.143857 0.499688 -0.369007
	endloop
endfacet
facet normal 0.0295453 0.270228 -0.962343
	outer loop
		vertex 0.143857 0.499688 -0.369007
		vertex 0.0719227 0.43517 -0.389332
		vertex -0.0724536 0.437451 -0.393124
	endloop
endfacet
facet normal 0.0285182 0.166519 -0.985626
	outer loop
		vertex -0.0724536 0.437451 -0.393124
		vertex 0.0719227 0.43517 -0.389332
		vertex 0.14731 0.367034 -0.398663
	endloop
endfacet
facet normal 0.0153026 0.125771 -0.991941
	outer loop
		vertex -0.0724536 0.437451 -0.393124
		vertex 0.14731 0.367034 -0.398663
		vertex 0.0735606 0.151837 -0.427086
	endloop
endfacet
facet normal 0.848241 -0.501906 0.169051
	outer loop
		vertex 0.419961 0.771165 0.0230443
		vertex 0.364138 0.614226 -0.162803
		vertex 0.493869 0.857462 -0.0915894
	endloop
endfacet
facet normal 0.829807 -0.523636 0.192938
	outer loop
		vertex 0.0733033 0.151628 -0.167449
		vertex 0.364138 0.614226 -0.162803
		vertex 0.419961 0.771165 0.0230443
	endloop
endfacet
facet normal 0.841089 -0.529882 0.108603
	outer loop
		vertex 0.0733033 0.151628 -0.167449
		vertex 0.150688 0.268405 -0.196998
		vertex 0.364138 0.614226 -0.162803
	endloop
endfacet
endsolid ref_2
