Point(1) = {0, 0, 0, 0.5};
Point(2) = {1, 0, 0, 0.25};
Point(3) = {1, 1, 0, 0.5};
Point(4) = {0, 1, 0, 0.25};
Point(5) = {0, 0, 1, 0.25};
Point(6) = {1, 0, 1, 0.5};
Point(7) = {1, 1, 1, 0.25};
Point(8) = {0, 1, 1, 0.5};
Line(1) = {8, 5};
Line(2) = {5, 6};
Line(3) = {6, 7};
Line(4) = {7, 8};
Line(5) = {8, 4};
Line(6) = {4, 1};
Line(7) = {1, 5};
Line(8) = {1, 2};
Line(9) = {2, 6};
Line(10) = {2, 3};
Line(11) = {3, 7};
Line(12) = {3, 4};
Line Loop(13) = {4, 1, 2, 3};
Plane Surface(14) = {13};
Line Loop(15) = {5, 6, 7, -1};
Plane Surface(16) = {15};
Line Loop(17) = {7, 2, -9, -8};
Plane Surface(18) = {17};
Line Loop(19) = {8, 10, 12, 6};
Plane Surface(20) = {19};
Line Loop(21) = {10, 11, -3, -9};
Plane Surface(22) = {21};
Line Loop(23) = {12, -5, -4, -11};
Plane Surface(24) = {23};
Surface Loop(25) = {14, 24, 20, 18, 16, 22};
Volume(26) = {25};
Physical Surface(1) = {24, 14, 16, 20, 18, 22};
Physical Volume(2) = {26};
